<?xml version="1.0" encoding="UTF-8"?><!DOCTYPE svg  PUBLIC '-//W3C//DTD SVG 20010904//EN'  'http://www.w3.org/TR/2001/REC-SVG-20010904/DTD/svg10.dtd'><svg width="700pt" height="700pt" version="1.0" viewBox="0 0 700 700" xmlns="http://www.w3.org/2000/svg"><metadata>Created by potrace 1.11, written by Peter Selinger 2001-2013</metadata><g transform="translate(0 700) scale(.1 -.1)"><path d="m3370 6894c-410-21-760-95-1116-235-1129-445-1939-1467-2114-2666-69-479-37-963 97-1436l36-127h508 509v1427 1428l2210-2210 2210 2210v-1428-1427h509 508l36 127c134 473 166 957 97 1436-212 1456-1350 2616-2800 2856-207 34-511 54-690 45z"/><path d="m2028 2635-3-900-1426-10 79-117c526-777 1341-1305 2252-1457 200-34 338-45 570-45 305 0 533 27 805 93 824 202 1538 700 2016 1409l80 117-716 3-715 2v903 902l-1470-1470-1470 1470-2-900z"/></g></svg>
